<?xml version="1.0" encoding="UTF-8" standalone="no"?>
<!-- Created with Inkscape (http://www.inkscape.org/) -->

<svg
   xmlns:dc="http://purl.org/dc/elements/1.1/"
   xmlns:cc="http://creativecommons.org/ns#"
   xmlns:rdf="http://www.w3.org/1999/02/22-rdf-syntax-ns#"
   xmlns:svg="http://www.w3.org/2000/svg"
   xmlns="http://www.w3.org/2000/svg"
   xmlns:sodipodi="http://sodipodi.sourceforge.net/DTD/sodipodi-0.dtd"
   xmlns:inkscape="http://www.inkscape.org/namespaces/inkscape"
   id="svg2"
   version="1.1"
   inkscape:version="0.48.3 r9882"
   width="765"
   height="990"
   xml:space="preserve"
   sodipodi:docname="LogoGlobantN.pdf"><metadata
     id="metadata8"><rdf:RDF><cc:Work
         rdf:about=""><dc:format>image/svg+xml</dc:format><dc:type
           rdf:resource="http://purl.org/dc/dcmitype/StillImage" /><dc:title></dc:title></cc:Work></rdf:RDF></metadata><defs
     id="defs6"><clipPath
       clipPathUnits="userSpaceOnUse"
       id="clipPath18"><path
         d="M 0,1447.62 0,0 l 4923.81,0 0,1447.62"
         id="path20" /></clipPath></defs><sodipodi:namedview
     pagecolor="#d7d7d7"
     bordercolor="#666666"
     borderopacity="1"
     objecttolerance="10"
     gridtolerance="10"
     guidetolerance="10"
     inkscape:pageopacity="0"
     inkscape:pageshadow="2"
     inkscape:window-width="1366"
     inkscape:window-height="721"
     id="namedview4"
     showgrid="false"
     inkscape:zoom="0.67425131"
     inkscape:cx="53.606649"
     inkscape:cy="74.999546"
     inkscape:window-x="-2"
     inkscape:window-y="-3"
     inkscape:window-maximized="1"
     inkscape:current-layer="g10" /><g
     id="g10"
     inkscape:groupmode="layer"
     inkscape:label="LogoGlobantN"
     transform="matrix(1.25,0,0,-1.25,0,990)"><g
       id="g3877"
       inkscape:export-filename="/home/rdarder/proyectos/go-talk/images/globant_dark.png"
       inkscape:export-xdpi="116.95"
       inkscape:export-ydpi="116.95"><path
         d="m 9.6,0 492.381,0 0,144.762 -492.381,0 L 9.6,0 z"
         style="fill:#231f20;fill-opacity:0;fill-rule:nonzero;stroke:none"
         id="path22"
         inkscape:connector-curvature="0" /><path
         d="m 386.91,87.3168 26.701,0 c 8.019,0 14.117,-0.7453 17.546,-2.6602 3.445,-1.9062 4.967,-5.3378 4.967,-9.916 l 0,-22.1261 -14.124,0 0,20.9894 c 0,2.6699 -0.761,4.1953 -1.906,4.9531 -1.142,0.7618 -3.803,1.1407 -7.622,1.1407 l -11.445,0 0,-27.0832 -14.117,0 0,34.7023"
         style="fill:#ffffff;fill-opacity:1;fill-rule:evenodd;stroke:none"
         id="path24"
         inkscape:connector-curvature="0" /><path
         d="m 169.115,52.6145 14.875,0 0,47.6836 -14.875,0 0,-47.6836 z"
         style="fill:#ffffff;fill-opacity:1;fill-rule:evenodd;stroke:none"
         id="path26"
         inkscape:connector-curvature="0" /><path
         d="m 121.063,72.4516 0,8.3906 36.608,0 0,-28.2277 -33.182,0 c -6.106,0 -11.059,0.3781 -14.117,1.1476 -3.4314,0.3828 -6.481,1.5301 -9.5232,3.0527 -3.8168,1.9122 -6.489,4.5743 -8.3957,7.6297 -1.916,3.0481 -2.6746,6.8586 -2.6746,11.05 0,8.3993 2.6746,14.4961 8.4043,18.6953 5.7082,3.8172 14.4862,6.1082 26.3062,6.1082 l 33.182,0 0,-8.3933 -33.182,0 c -6.106,0 -10.682,-1.1399 -13.342,-3.8106 -2.6802,-2.6777 -4.2064,-6.4855 -4.2064,-12.2089 0,-4.9551 1.5262,-8.7774 4.2064,-11.0664 2.66,-2.2891 7.236,-3.4297 13.342,-3.4297 l 17.553,0 0,11.0625 -20.979,0"
         style="fill:#ffffff;fill-opacity:1;fill-rule:evenodd;stroke:none"
         id="path28"
         inkscape:connector-curvature="0" /><path
         d="m 221.369,52.2355 c -8.766,0 -16.018,1.5266 -20.977,4.5793 -5.337,3.4336 -8.007,7.6297 -8.007,13.3438 0,5.3359 2.67,9.9238 8.007,12.9676 4.959,3.4453 12.211,4.9679 20.977,4.9679 0.774,0 1.532,-0.0109 2.277,-0.0371 7.694,-0.2472 13.8,-1.789 18.326,-4.9308 5.341,-3.0438 8.007,-7.6317 8.007,-12.9676 0,-5.7141 -2.666,-9.9102 -7.629,-13.3438 -5.339,-3.0527 -12.206,-4.5793 -20.981,-4.5793 m 0,7.2442 c 4.204,0 7.639,1.1515 9.928,2.6738 2.289,1.9192 3.805,4.5832 3.805,8.0051 0,3.0586 -1.516,5.7266 -3.805,7.6406 -2.289,1.8985 -5.724,2.6621 -9.928,2.6621 -4.57,0 -8.003,-0.7636 -10.292,-2.6621 -2.287,-1.914 -3.429,-4.582 -3.429,-7.6406 0,-3.4219 1.142,-6.0859 3.429,-8.0051 2.289,-1.5223 5.722,-2.6738 10.292,-2.6738"
         style="fill:#b5dc17;fill-opacity:1;fill-rule:evenodd;stroke:none"
         id="path30"
         inkscape:connector-curvature="0" /><path
         d="m 285.452,52.6145 -26.701,0 0,47.6835 14.49,0 0,-12.9812 12.211,0 c 5.341,0 9.535,-0.373 12.966,-1.134 3.444,-0.7664 6.104,-2.289 8.395,-4.198 1.911,-1.5235 3.435,-3.0442 4.569,-4.9668 0.768,-1.8965 1.54,-4.1875 1.54,-6.4688 0,-5.7304 -2.674,-9.918 -7.248,-12.9719 -4.582,-3.4324 -11.068,-4.9628 -19.453,-4.9628 l -0.769,0 z m 0,7.6339 c 4.188,0 7.252,0.7598 8.77,2.2813 2.301,1.1504 3.439,3.8203 3.439,7.25 0,3.8242 -1.138,6.1055 -3.439,8.0195 -1.905,1.1414 -5.018,2.1875 -8.833,2.1875 -0.795,0 -1.791,0.0957 -3.752,0.0957 l -8.396,0 0,-19.834 12.211,0"
         style="fill:#ffffff;fill-opacity:1;fill-rule:evenodd;stroke:none"
         id="path32"
         inkscape:connector-curvature="0" /><path
         d="m 346.86,59.8605 12.588,0 0,6.8762 -16.783,0 c -3.427,0 -5.655,0.1367 -7.038,-0.6281 -1.372,-0.7606 -1.732,-1.6641 -1.732,-3.1961 0,-1.1437 0.409,-1.8664 1.52,-2.6641 0.615,-0.4406 3.056,-0.3879 6.108,-0.3879 l 5.337,0 z m 0,-7.246 -11.069,0 c -5.337,0 -9.524,0.7628 -12.577,2.6777 -2.67,1.8945 -4.19,4.1875 -4.19,7.2375 0,4.207 1.52,6.8758 4.951,8.7734 3.437,1.5274 8.772,2.6766 16.792,2.6766 l 18.681,0 0,0.7609 c 0,1.909 -1.143,3.4356 -2.672,4.2 -1.902,0.7571 -5.339,1.5207 -9.916,1.5207 l -24.409,0 0,6.8555 29.379,0 c 7.618,0 12.959,-0.7453 16.772,-3.0449 3.818,-2.2871 5.722,-5.3313 5.722,-9.9133 l 0,-21.7441 -27.464,0"
         style="fill:#ffffff;fill-opacity:1;fill-rule:evenodd;stroke:none"
         id="path34"
         inkscape:connector-curvature="0" /><path
         d="M 37.9035,74.3586 C 41.7191,70.9301 57.359,57.1867 57.359,57.1867 c 0,0 -18.0969,-14.3836 -19.6289,-15.5297 -2.4781,-1.9832 -5.3254,0.8039 -3.2571,3.3414 9.3922,7.8086 6.8512,21.4356 -0.273,26.9825 -1.8602,2.0117 1.2398,5.1707 3.7035,2.3777"
         style="fill:#b5dc17;fill-opacity:1;fill-rule:evenodd;stroke:none"
         id="path36"
         inkscape:connector-curvature="0" /><path
         d="m 37.9035,115.239 c 3.8156,-3.428 19.4555,-17.1714 19.4555,-17.1714 0,0 -18.0969,-14.3848 -19.6289,-15.5301 -2.4781,-1.9816 -5.3254,0.8086 -3.2571,3.3418 9.3922,7.8105 6.8512,21.4367 -0.273,26.9807 -1.8602,2.013 1.2398,5.174 3.7035,2.379"
         style="fill:#b5dc17;fill-opacity:1;fill-rule:evenodd;stroke:none"
         id="path38"
         inkscape:connector-curvature="0" /><path
         d="m 62.4328,93.809 c 3.8152,-3.4258 19.4555,-17.1738 19.4555,-17.1738 0,0 -18.0953,-14.3848 -19.6297,-15.5274 -2.4774,-1.9824 -5.3266,0.8027 -3.2527,3.3418 9.3863,7.8066 6.8461,21.4336 -0.277,26.9754 -1.8578,2.0156 1.2395,5.175 3.7039,2.384"
         style="fill:#b5dc17;fill-opacity:1;fill-rule:evenodd;stroke:none"
         id="path40"
         inkscape:connector-curvature="0" /><path
         d="m 442.985,87.3168 10.303,0 0,12.9812 14.107,0 0,-12.9812 15.255,0 0,-6.8555 -15.255,0 0,-14.1113 c 0,-2.2773 0.761,-4.1965 2.284,-5.3418 1.153,-0.7598 3.444,-1.5285 6.869,-1.5285 l 6.102,0 0,-6.8652 -12.971,0 c -5.342,0 -9.53,1.1476 -12.2,3.046 -3.047,1.5262 -4.191,4.5879 -4.191,8.0196 l 0,16.7812 -10.303,0 0,6.8555"
         style="fill:#ffffff;fill-opacity:1;fill-rule:evenodd;stroke:none"
         id="path42"
         inkscape:connector-curvature="0" /><path
         d="m 260.48,35.9621 1.709,-6.4422 c 0.342,-1.4179 0.683,-2.7597 0.92,-4.0738 l 0.078,0 c 0.289,1.2867 0.711,2.6559 1.131,4.048 l 2.078,6.468 1.945,0 1.971,-6.3621 c 0.475,-1.498 0.842,-2.8672 1.131,-4.1539 l 0.079,0 c 0.21,1.2867 0.552,2.6277 0.973,4.1269 l 1.814,6.3891 2.289,0 -4.103,-12.725 -2.103,0 -1.945,6.0738 c -0.448,1.445 -0.815,2.7071 -1.132,4.2059 l -0.052,0 c -0.316,-1.5246 -0.71,-2.8656 -1.156,-4.234 l -2.051,-6.0457 -2.103,0 -3.839,12.725 2.366,0"
         style="fill:#ffffff;fill-opacity:1;fill-rule:nonzero;stroke:none"
         id="path44"
         inkscape:connector-curvature="0" /><path
         d="m 294.87,30.8621 c 0.025,1.4449 -0.605,3.759 -3.182,3.759 -2.367,0 -3.365,-2.1563 -3.55,-3.759 l 6.732,0 z m -6.757,-1.657 c 0.052,-3.1289 2.024,-4.418 4.338,-4.418 1.655,0 2.682,0.291 3.524,0.6328 l 0.418,-1.6308 c -0.813,-0.368 -2.234,-0.8141 -4.258,-0.8141 -3.891,0 -6.257,2.6012 -6.257,6.4148 0,3.8641 2.287,6.8883 5.994,6.8883 4.154,0 5.232,-3.6562 5.232,-5.9953 0,-0.4738 -0.026,-0.8406 -0.079,-1.1047 l -8.912,0.027"
         style="fill:#ffffff;fill-opacity:1;fill-rule:nonzero;stroke:none"
         id="path46"
         inkscape:connector-curvature="0" /><path
         d="m 328.023,29.7309 c -2.525,0.0519 -5.389,-0.395 -5.389,-2.8649 0,-1.5262 0.999,-2.2082 2.155,-2.2082 1.683,0 2.761,1.0512 3.129,2.1274 0.079,0.2386 0.105,0.5 0.105,0.7367 l 0,2.209 z m 2.261,-3.445 c 0,-1.1039 0.053,-2.182 0.185,-3.0488 l -2.077,0 -0.212,1.6027 -0.078,0 c -0.684,-0.9976 -2.077,-1.8918 -3.89,-1.8918 -2.577,0 -3.894,1.8141 -3.894,3.6551 0,3.075 2.736,4.7578 7.653,4.7321 l 0,0.2628 c 0,1.0508 -0.289,2.97 -2.893,2.9442 -1.209,0 -2.444,-0.3422 -3.339,-0.9461 l -0.526,1.5508 c 1.054,0.657 2.604,1.1043 4.208,1.1043 3.918,0 4.863,-2.6551 4.863,-5.2063 l 0,-4.759"
         style="fill:#ffffff;fill-opacity:1;fill-rule:nonzero;stroke:none"
         id="path48"
         inkscape:connector-curvature="0" /><path
         d="m 341.903,31.9922 c 0,1.4988 -0.024,2.7879 -0.103,3.9699 l 2.024,0 0.105,-2.498 0.078,0 c 0.58,1.7097 1.998,2.7871 3.551,2.7871 0.235,0 0.419,-0.0262 0.629,-0.0793 l 0,-2.1559 c -0.262,0.027 -0.499,0.0531 -0.813,0.0531 -1.631,0 -2.787,-1.2351 -3.104,-2.9453 -0.051,-0.341 -0.078,-0.7097 -0.078,-1.1039 l 0,-6.7828 -2.313,0 0.024,8.7551"
         style="fill:#ffffff;fill-opacity:1;fill-rule:nonzero;stroke:none"
         id="path50"
         inkscape:connector-curvature="0" /><path
         d="m 365.962,30.8621 c 0.025,1.4449 -0.606,3.759 -3.182,3.759 -2.367,0 -3.365,-2.1563 -3.55,-3.759 l 6.732,0 z m -6.758,-1.657 c 0.053,-3.1289 2.025,-4.418 4.338,-4.418 1.657,0 2.683,0.291 3.523,0.6328 l 0.421,-1.6308 c -0.815,-0.368 -2.235,-0.8141 -4.259,-0.8141 -3.89,0 -6.257,2.6012 -6.257,6.4148 0,3.8641 2.287,6.8883 5.994,6.8883 4.154,0 5.231,-3.6562 5.231,-5.9953 0,-0.4738 -0.024,-0.8406 -0.077,-1.1047 l -8.914,0.027"
         style="fill:#ffffff;fill-opacity:1;fill-rule:nonzero;stroke:none"
         id="path52"
         inkscape:connector-curvature="0" /><path
         d="m 392.437,31.9922 c 0,1.4988 -0.025,2.7879 -0.105,3.9699 l 2.025,0 0.106,-2.498 0.077,0 c 0.579,1.7097 1.998,2.7871 3.55,2.7871 0.236,0 0.421,-0.0262 0.631,-0.0793 l 0,-2.1559 c -0.263,0.027 -0.5,0.0531 -0.815,0.0531 -1.631,0 -2.787,-1.2351 -3.101,-2.9453 -0.054,-0.341 -0.08,-0.7097 -0.08,-1.1039 l 0,-6.7828 -2.313,0 0.025,8.7551"
         style="fill:#ffffff;fill-opacity:1;fill-rule:nonzero;stroke:none"
         id="path54"
         inkscape:connector-curvature="0" /><path
         d="m 416.494,30.8621 c 0.025,1.4449 -0.605,3.759 -3.181,3.759 -2.367,0 -3.367,-2.1563 -3.55,-3.759 l 6.731,0 z m -6.757,-1.657 c 0.053,-3.1289 2.025,-4.418 4.338,-4.418 1.655,0 2.682,0.291 3.524,0.6328 l 0.419,-1.6308 c -0.814,-0.368 -2.235,-0.8141 -4.259,-0.8141 -3.891,0 -6.258,2.6012 -6.258,6.4148 0,3.8641 2.289,6.8883 5.995,6.8883 4.155,0 5.232,-3.6562 5.232,-5.9953 0,-0.4738 -0.026,-0.8406 -0.079,-1.1047 l -8.912,0.027"
         style="fill:#ffffff;fill-opacity:1;fill-rule:nonzero;stroke:none"
         id="path56"
         inkscape:connector-curvature="0" /><path
         d="m 436.185,29.7309 c -2.523,0.0519 -5.388,-0.395 -5.388,-2.8649 0,-1.5262 0.999,-2.2082 2.155,-2.2082 1.683,0 2.762,1.0512 3.129,2.1274 0.079,0.2386 0.104,0.5 0.104,0.7367 l 0,2.209 z m 2.263,-3.445 c 0,-1.1039 0.052,-2.182 0.183,-3.0488 l -2.076,0 -0.211,1.6027 -0.078,0 c -0.684,-0.9976 -2.079,-1.8918 -3.892,-1.8918 -2.576,0 -3.892,1.8141 -3.892,3.6551 0,3.075 2.735,4.7578 7.651,4.7321 l 0,0.2628 c 0,1.0508 -0.289,2.97 -2.892,2.9442 -1.209,0 -2.444,-0.3422 -3.339,-0.9461 l -0.525,1.5508 c 1.052,0.657 2.602,1.1043 4.206,1.1043 3.918,0 4.865,-2.6551 4.865,-5.2063 l 0,-4.759"
         style="fill:#ffffff;fill-opacity:1;fill-rule:nonzero;stroke:none"
         id="path58"
         inkscape:connector-curvature="0" /><path
         d="m 458.719,30.7828 c 0,0.3152 -0.028,0.6832 -0.106,0.9992 -0.342,1.4469 -1.604,2.6559 -3.339,2.6559 -2.392,0 -3.813,-2.1039 -3.813,-4.891 0,-2.6028 1.289,-4.7321 3.76,-4.7321 1.552,0 2.971,1.0512 3.392,2.759 0.078,0.316 0.106,0.6321 0.106,1 l 0,2.209 z m 2.313,11.1223 0,-15.3813 c 0,-1.1308 0.026,-2.4199 0.105,-3.2867 l -2.077,0 -0.106,2.209 -0.053,0 c -0.709,-1.4199 -2.233,-2.4981 -4.31,-2.4981 -3.077,0 -5.47,2.602 -5.47,6.4668 -0.024,4.2614 2.631,6.8364 5.707,6.8364 1.971,0 3.286,-0.9211 3.838,-1.9192 l 0.053,0 0,7.5731 2.313,0"
         style="fill:#ffffff;fill-opacity:1;fill-rule:nonzero;stroke:none"
         id="path60"
         inkscape:connector-curvature="0" /><path
         d="m 473.599,35.9621 2.761,-7.518 c 0.315,-0.8421 0.631,-1.841 0.842,-2.6043 l 0.053,0 c 0.236,0.7633 0.498,1.734 0.814,2.6563 l 2.524,7.466 2.445,0 -3.471,-9.0711 c -1.656,-4.3629 -2.787,-6.5988 -4.364,-7.9922 -1.157,-0.9726 -2.261,-1.3668 -2.839,-1.4726 l -0.579,1.9449 c 0.579,0.1598 1.341,0.5277 2.025,1.1309 0.63,0.5 1.393,1.3949 1.946,2.5769 0.104,0.2383 0.182,0.3949 0.182,0.552 0,0.132 -0.052,0.3152 -0.182,0.5793 l -4.681,11.7519 2.524,0"
         style="fill:#ffffff;fill-opacity:1;fill-rule:nonzero;stroke:none"
         id="path62"
         inkscape:connector-curvature="0" /><path
         transform="matrix(0.8,0,0,-0.8,0,792)"
         inkscape:connector-curvature="0"
         id="path3062"
         d="m 12.206937,899.49153 0,-90.19068 307.539723,0 307.53973,0 0,90.19068 0,90.19067 -307.53973,0 -307.539723,0 0,-90.19067 z m 581.856243,66.98755 c 2.10234,-1.84136 4.02513,-5.60189 7.44016,-14.55111 1.15559,-3.02821 2.26352,-5.91877 2.46215,-6.42347 0.30245,-0.76864 0.061,-0.91764 -1.48663,-0.91764 l -1.84765,0 -2.04088,6.12266 -2.04093,6.12265 -2.12504,-5.99156 -2.12503,-5.99156 -1.90796,-0.16275 c -1.04936,-0.0895 -1.90795,-0.0875 -1.90795,0.004 0,0.0919 1.38941,3.70464 3.08762,8.02822 3.01362,7.67256 3.06706,7.89648 2.22854,9.33926 -0.4725,0.81302 -1.62594,1.95309 -2.56325,2.5335 -1.77256,1.09763 -1.91539,1.38227 -1.38589,2.76213 0.50182,1.30776 2.09976,0.97596 4.21274,-0.87475 l 0,2.3e-4 z M 332.1098,955.65049 c 0.98709,-3.14382 1.90023,-5.61423 2.0292,-5.48981 0.12898,0.12443 0.98644,2.63765 1.90547,5.58495 1.58023,5.06773 1.75306,5.36714 3.18297,5.51393 1.4921,0.15317 1.53889,0.0738 3.55396,-6.03019 1.12307,-3.40198 2.3465,-7.18826 2.71872,-8.41396 l 0.67678,-2.22855 -1.74779,0 -1.74779,0 -1.62756,5.84747 c -1.56432,5.62026 -2.1798,7.23081 -2.15722,5.64486 0.006,-0.40857 -0.7416,-3.16149 -1.66093,-6.11759 -1.57178,-5.05407 -1.75487,-5.37474 -3.06893,-5.37474 -1.31405,0 -1.49715,0.32067 -3.06893,5.37474 -0.91932,2.9561 -1.66674,5.71688 -1.66092,6.13506 0.0217,1.55631 -0.87828,-0.30815 -1.4863,-3.07929 -0.34312,-1.56383 -0.98931,-4.10044 -1.43598,-5.63692 -0.74262,-2.55453 -0.94355,-2.79359 -2.348,-2.79359 -0.92876,0 -1.53588,0.27581 -1.53588,0.69773 0,0.58411 3.67887,13.35369 4.44431,15.42648 0.13313,0.3605 0.91662,0.65546 1.74109,0.65546 1.4477,0 1.56049,-0.19574 3.29373,-5.71604 l 0,0 z m 37.37578,5.22045 c 0.97103,-0.36918 1.23178,-0.76976 1.02237,-1.57056 -0.25251,-0.96561 -0.55898,-1.04232 -3.01208,-0.75401 -3.43669,0.40392 -5.70395,-0.64128 -6.52975,-3.01017 -0.31967,-0.917 -0.58148,-1.69105 -0.5818,-1.72011 -3.3e-4,-0.029 2.47729,0.0276 5.50582,0.12597 l 5.50642,0.17882 -0.001,-2.27628 c -10e-4,-2.79528 -1.39373,-5.71201 -3.14538,-6.58726 -0.721,-0.36026 -2.41363,-0.65849 -3.7614,-0.66275 -1.90501,-0.006 -2.82552,0.30783 -4.13513,1.40979 -4.46206,3.75458 -4.11844,12.02809 0.5999,14.44369 1.95503,1.0009 6.42836,1.22262 8.53184,0.42287 l 2.4e-4,0 z m 39.16689,-0.30443 c 1.38673,-0.7171 1.54705,-0.7171 1.54705,0 0,0.53933 0.5126,0.80002 1.5731,0.80002 l 1.57309,0 0,-4.69348 c 0,-9.48255 -1.42192,-12.08619 -6.6006,-12.08619 -4.30861,0 -6.20172,1.16345 -4.99407,3.06924 0.34524,0.54483 0.70064,0.57526 1.53058,0.13109 1.97884,-1.05904 4.70616,-0.71603 5.6401,0.70935 1.09534,1.67169 0.60178,2.3827 -1.65399,2.3827 -4.14447,0 -7.03113,2.38663 -7.03113,5.81317 0,3.92561 4.39971,5.95094 8.41587,3.8741 l 0,0 z m 21.99726,-4.6351 c 0,-4.70456 0.14608,-5.62081 1.08679,-6.81673 0.64082,-0.81467 1.60911,-1.38163 2.35964,-1.38163 1.06471,0 1.27285,-0.25725 1.27285,-1.57309 0,-1.30447 -0.21177,-1.5731 -1.24019,-1.5731 -0.68211,0 -1.86193,0.48906 -2.62182,1.08679 l -1.38163,1.08679 0,-1.08679 c 0,-0.85796 -0.33122,-1.08679 -1.57309,-1.08679 l -1.5731,0 0,8.38983 0,8.38984 1.83528,0 1.83527,0 0,-5.43512 z m 27.68774,5.09742 c 0.8574,-0.22965 1.16136,-0.64551 1.04873,-1.43484 -0.14495,-1.01575 -0.43299,-1.09649 -3.3447,-0.93751 -2.82363,0.15417 -3.37543,0.0146 -4.85037,-1.22643 -0.92331,-0.77691 -1.66454,-1.90492 -1.66486,-2.5336 -5.3e-4,-1.10081 0.15684,-1.1281 5.50582,-0.95439 l 5.50642,0.17882 -0.003,-1.48973 c -0.01,-4.87772 -2.65774,-8.04558 -6.72296,-8.04232 -4.87447,0.004 -7.63367,3.12307 -7.67215,8.67311 -0.0251,3.62006 0.89906,5.46501 3.54596,7.07893 1.6941,1.03295 6.06518,1.38056 8.65104,0.68796 l 2.2e-4,0 z m 35.23599,-4.66981 c 0,-6.57362 1.00829,-8.62597 4.23781,-8.62597 0.76802,0 1.00584,-0.37193 1.00584,-1.57309 0,-1.40353 -0.17214,-1.5731 -1.59693,-1.5731 -0.99635,0 -2.08098,0.48405 -2.884,1.28708 l -1.28708,1.28708 0,-1.32191 c 0,-1.13273 -0.20637,-1.29816 -1.442,-1.15598 -0.7931,0.0912 -1.38301,0.34289 -1.31091,0.55919 0.0721,0.2163 0.13109,3.93273 0.13109,8.25874 l 0,7.86547 1.57309,0 1.57309,0 0,-5.00751 z m 27.9778,4.51192 c 0.97697,-0.37144 1.23227,-0.7679 1.01919,-1.58271 -0.25492,-0.97482 -0.5478,-1.05217 -2.83524,-0.74873 -3.16288,0.41957 -5.48515,-0.45782 -6.52281,-2.46444 -0.419,-0.81025 -0.76209,-1.66188 -0.76241,-1.89251 -3.2e-4,-0.23062 2.4773,-0.33884 5.50583,-0.24049 l 5.50641,0.17882 0,-2.16202 c 0,-4.74765 -2.45253,-7.372 -6.88934,-7.372 -4.36333,0 -7.26849,3.41614 -7.26849,8.5469 0,3.44661 1.34928,6.10315 3.71502,7.31431 1.95502,1.0009 6.42835,1.22262 8.53184,0.42287 l 0,0 z m 22.38725,-0.30443 c 1.38673,-0.7171 1.54703,-0.7171 1.54703,0 0,0.53356 0.50748,0.80002 1.52364,0.80002 l 1.5237,0 -0.28321,-6.42347 c -0.30853,-6.99854 -0.94831,-9.04178 -3.08557,-9.85436 -2.86308,-1.08855 -8.60602,-0.22791 -8.58473,1.28652 0.0194,1.38359 0.88832,2.00064 1.98828,1.41197 1.97885,-1.05904 4.70612,-0.71603 5.64007,0.70935 1.09534,1.67169 0.60181,2.3827 -1.65395,2.3827 -4.19078,0 -7.03115,2.38687 -7.03115,5.90851 0,3.96035 4.31667,5.89855 8.41589,3.77876 l 0,0 z m 27.8007,-0.005 c 1.39932,-0.7236 1.58767,-0.7236 1.86537,0 0.16984,0.44269 0.87349,0.80489 1.56366,0.80489 l 1.2548,0 0,-12.06038 0,-12.06039 -1.57309,0 -1.5731,0 0,4.48683 0,4.48684 -1.1654,-0.81629 c -0.65351,-0.45774 -2.24805,-0.81627 -3.63033,-0.81627 -4.29066,0 -7.26465,3.55627 -7.26465,8.68701 0,6.2496 5.35649,9.95935 10.52274,7.28776 z M 59.393309,928.63803 c 10.577721,-8.34295 12.473665,-10.04133 11.93453,-10.69095 -2.056348,-2.47775 -25.718077,-22.65047 -26.56802,-22.65047 -1.099403,0 -2.625998,1.26888 -2.726239,2.266 -0.14659,1.45816 0.284268,2.28408 2.445563,4.68796 5.999439,6.67282 7.570307,16.33936 3.917926,24.10947 -0.627844,1.33567 -2.302495,3.7552 -3.721447,5.37671 -3.649263,4.17022 -3.452626,7.3279 0.434352,6.97499 1.307006,-0.11867 4.659389,-2.48303 14.283335,-10.07371 l 0,0 z M 287.49825,924.0796 c 15.29288,-2.14273 24.26213,-9.41269 25.04088,-20.29669 0.62518,-8.73771 -3.39381,-14.70604 -13.27005,-19.70648 -4.68159,-2.37033 -8.47485,-3.33393 -16.05416,-4.07822 -11.6123,-1.14033 -24.08466,0.83199 -31.31012,4.95123 -5.00333,2.85241 -8.16848,5.94615 -9.93129,9.70727 -1.19935,2.55892 -1.40587,3.69441 -1.40587,7.72985 0,4.28793 0.16117,5.05769 1.72345,8.23113 2.02133,4.10589 4.87754,6.82505 9.94374,9.46658 8.11845,4.23298 22.18925,5.82719 35.26342,3.99533 z m -90.19068,-17.50916 0,-18.09057 -23.07203,0 -23.07204,0 0,5.50583 0,5.50583 13.10911,0 13.10912,0 0,6.81673 0,6.81674 -11.41868,0 c -6.28028,0 -13.41819,-0.24841 -15.86203,-0.55203 -4.66051,-0.57901 -9.30311,-2.33544 -11.44153,-4.32864 -3.44701,-3.21294 -5.296,-10.47006 -4.32719,-16.98388 1.34317,-9.03084 5.23466,-13.35796 13.60952,-15.13306 2.68799,-0.56973 8.72465,-0.7405 26.42481,-0.74752 l 22.94094,-0.009 0,-5.50582 0,-5.50583 -23.35488,0 c -12.84519,0 -25.64623,0.24573 -28.44677,0.54606 -15.16842,1.62669 -25.52672,6.84891 -29.88711,15.06783 -3.13196,5.90344 -4.30286,13.11615 -3.29629,20.30507 2.03143,14.50857 13.617,22.47764 34.64607,23.83115 3.3166,0.21346 15.99967,0.42495 28.18459,0.46996 l 22.15439,0.0818 0,-18.09058 z m 33.03496,-12.06038 0,-30.15095 -9.70074,0 -9.70074,0 0,30.15095 0,30.15096 9.70074,0 9.70074,0 0,-30.15096 z m 132.92638,29.62949 c 10.29632,-0.91486 16.03093,-3.06988 21.6142,-8.12246 4.19516,-3.79639 5.98912,-7.36189 6.32318,-12.56732 0.37975,-5.9173 -1.17588,-10.01201 -5.37595,-14.15051 -7.06705,-6.96345 -13.74474,-8.68485 -33.69042,-8.68485 l -10.10777,0 0,-8.12765 0,-8.12765 -9.43856,0 -9.43856,0 0,30.15095 0,30.15096 17.17293,-0.005 c 9.44512,-0.003 19.76854,-0.23512 22.94095,-0.51699 l 0,2.4e-4 z m 105.04191,-15.07837 c -0.1818,-14.40776 -0.27952,-15.78016 -1.27875,-17.95949 -1.90445,-4.15362 -6.31342,-7.39143 -12.54639,-9.21367 -2.71378,-0.79338 -6.3051,-0.94222 -27.37541,-1.13449 l -24.25185,-0.2213 0,4.444 0,4.44401 18.74603,0.25014 c 15.00798,0.20027 19.32111,0.41638 21.63003,1.08372 3.2283,0.93307 5.76801,3.26 5.76801,5.28476 l 0,1.25007 -17.43512,0.24843 c -15.66402,0.22318 -17.85515,0.3618 -21.57004,1.36464 -6.15956,1.66279 -8.85349,3.61359 -10.49702,7.60139 -1.02235,2.48061 -1.08587,7.11042 -0.12883,9.39137 1.07075,2.55197 4.44675,5.51145 7.65754,6.71276 4.44931,1.6647 8.89516,1.90883 36.12622,1.98375 l 25.35244,0.0697 -0.19686,-15.59984 z m 33.12811,-1.50894 0,-17.10877 10.3562,0.26662 c 6.36507,0.16386 11.0347,0.52013 12.11678,0.92443 3.01516,1.12657 3.22088,2.31388 3.22088,18.58963 l 0,14.43687 9.21586,0 9.21591,0 -0.17063,-16.38639 c -0.1604,-15.40799 -0.23696,-16.52728 -1.28223,-18.74603 -1.96332,-4.16741 -4.85986,-6.12254 -11.47309,-7.74419 -2.43353,-0.59674 -8.34262,-0.82723 -26.08713,-1.01755 l -22.94094,-0.24605 0,22.0701 0,22.07011 8.91419,0 8.9142,0 0,-17.10878 0,0 z m 102.25106,12.3895 0,-4.71928 -5.83827,0 c -6.71523,0 -9.2715,-0.60518 -11.24138,-2.66129 -1.88257,-1.965 -2.27197,-4.42274 -2.29897,-14.51165 l -0.0229,-8.52092 9.70074,0 9.70074,0 0,-4.4571 0,-4.45709 -9.70074,0 -9.70074,0 0,-8.12765 0,-8.12765 -8.9142,0 -8.91419,0 0,8.12765 0,8.12765 -6.55456,0 -6.55455,0 0,4.45709 0,4.4571 6.55455,0 6.55456,0 0.0115,12.19147 c 0.0147,15.78004 0.40822,16.7917 7.88943,20.29084 4.24195,1.98404 8.22759,2.49141 20.28362,2.58208 l 9.04529,0.068 0,-4.71928 z M 77.526901,914.02405 c 1.886401,-1.10694 24.870709,-19.41969 24.870709,-19.81573 0,-0.35852 -2.2845,-2.41931 -18.749352,-16.91336 -7.124975,-6.27212 -8.352711,-6.90541 -10.180488,-5.25129 -1.489924,1.34836 -1.145196,2.93237 1.119408,5.1437 1.143088,1.11619 2.971809,3.81867 4.063824,6.00551 1.936436,3.87785 1.98549,4.11859 1.98549,9.74409 0,5.16046 -0.148023,6.08383 -1.405328,8.76636 -0.772929,1.64909 -2.453381,4.12671 -3.734345,5.50583 -2.855448,3.07424 -3.3617,4.48082 -2.232828,6.20369 0.918183,1.40133 2.52406,1.63158 4.26291,0.6112 l 0,0 z M 59.274459,877.70296 c 6.948865,-5.46451 12.592348,-10.1044 12.54107,-10.31086 -0.05128,-0.20646 -5.863584,-5.45665 -12.916235,-11.66711 -13.574356,-11.95336 -14.731271,-12.6682 -16.474505,-10.17938 -1.030021,1.47056 -0.394152,3.11237 2.364514,6.10517 3.931553,4.26523 6.106619,11.06566 5.490234,17.16543 -0.399567,3.95412 -2.646716,8.62828 -5.798619,12.06135 -1.470877,1.60209 -2.38521,3.08907 -2.38521,3.87904 0,1.84451 1.526255,3.32481 3.178058,3.08238 0.777747,-0.11415 6.809291,-4.48078 14.000693,-10.13602 z"
         style="fill:#ffffff;fill-opacity:0;stroke:#ff0000;stroke-width:0.52436441;stroke-opacity:0" /><path
         transform="matrix(0.8,0,0,-0.8,0,792)"
         inkscape:connector-curvature="0"
         id="path3064"
         d="m 12.206937,899.49153 0,-90.19068 307.539723,0 307.53973,0 0,90.19068 0,90.19067 -307.53973,0 -307.539723,0 0,-90.19067 z m 581.856243,66.98755 c 2.10234,-1.84136 4.02513,-5.60189 7.44016,-14.55111 1.15559,-3.02821 2.26352,-5.91877 2.46215,-6.42347 0.30245,-0.76864 0.061,-0.91764 -1.48663,-0.91764 l -1.84765,0 -2.04088,6.12266 -2.04093,6.12265 -2.12504,-5.99156 -2.12503,-5.99156 -1.90796,-0.16275 c -1.04936,-0.0895 -1.90795,-0.0875 -1.90795,0.004 0,0.0919 1.38941,3.70464 3.08762,8.02822 3.01362,7.67256 3.06706,7.89648 2.22854,9.33926 -0.4725,0.81302 -1.62594,1.95309 -2.56325,2.5335 -1.77256,1.09763 -1.91539,1.38227 -1.38589,2.76213 0.50182,1.30776 2.09976,0.97596 4.21274,-0.87475 l 0,2.3e-4 z M 332.1098,955.65049 c 0.98709,-3.14382 1.90023,-5.61423 2.0292,-5.48981 0.12898,0.12443 0.98644,2.63765 1.90547,5.58495 1.58023,5.06773 1.75306,5.36714 3.18297,5.51393 1.4921,0.15317 1.53889,0.0738 3.55396,-6.03019 1.12307,-3.40198 2.3465,-7.18826 2.71872,-8.41396 l 0.67678,-2.22855 -1.74779,0 -1.74779,0 -1.62756,5.84747 c -1.56432,5.62026 -2.1798,7.23081 -2.15722,5.64486 0.006,-0.40857 -0.7416,-3.16149 -1.66093,-6.11759 -1.57178,-5.05407 -1.75487,-5.37474 -3.06893,-5.37474 -1.31405,0 -1.49715,0.32067 -3.06893,5.37474 -0.91932,2.9561 -1.66674,5.71688 -1.66092,6.13506 0.0217,1.55631 -0.87828,-0.30815 -1.4863,-3.07929 -0.34312,-1.56383 -0.98931,-4.10044 -1.43598,-5.63692 -0.74262,-2.55453 -0.94355,-2.79359 -2.348,-2.79359 -0.92876,0 -1.53588,0.27581 -1.53588,0.69773 0,0.58411 3.67887,13.35369 4.44431,15.42648 0.13313,0.3605 0.91662,0.65546 1.74109,0.65546 1.4477,0 1.56049,-0.19574 3.29373,-5.71604 l 0,0 z m 37.37578,5.22045 c 0.97103,-0.36918 1.23178,-0.76976 1.02237,-1.57056 -0.25251,-0.96561 -0.55898,-1.04232 -3.01208,-0.75401 -3.43669,0.40392 -5.70395,-0.64128 -6.52975,-3.01017 -0.31967,-0.917 -0.58148,-1.69105 -0.5818,-1.72011 -3.3e-4,-0.029 2.47729,0.0276 5.50582,0.12597 l 5.50642,0.17882 -0.001,-2.27628 c -10e-4,-2.79528 -1.39373,-5.71201 -3.14538,-6.58726 -0.721,-0.36026 -2.41363,-0.65849 -3.7614,-0.66275 -1.90501,-0.006 -2.82552,0.30783 -4.13513,1.40979 -4.46206,3.75458 -4.11844,12.02809 0.5999,14.44369 1.95503,1.0009 6.42836,1.22262 8.53184,0.42287 l 2.4e-4,0 z m 39.16689,-0.30443 c 1.38673,-0.7171 1.54705,-0.7171 1.54705,0 0,0.53933 0.5126,0.80002 1.5731,0.80002 l 1.57309,0 0,-4.69348 c 0,-9.48255 -1.42192,-12.08619 -6.6006,-12.08619 -4.30861,0 -6.20172,1.16345 -4.99407,3.06924 0.34524,0.54483 0.70064,0.57526 1.53058,0.13109 1.97884,-1.05904 4.70616,-0.71603 5.6401,0.70935 1.09534,1.67169 0.60178,2.3827 -1.65399,2.3827 -4.14447,0 -7.03113,2.38663 -7.03113,5.81317 0,3.92561 4.39971,5.95094 8.41587,3.8741 l 0,0 z m 21.99726,-4.6351 c 0,-4.70456 0.14608,-5.62081 1.08679,-6.81673 0.64082,-0.81467 1.60911,-1.38163 2.35964,-1.38163 1.06471,0 1.27285,-0.25725 1.27285,-1.57309 0,-1.30447 -0.21177,-1.5731 -1.24019,-1.5731 -0.68211,0 -1.86193,0.48906 -2.62182,1.08679 l -1.38163,1.08679 0,-1.08679 c 0,-0.85796 -0.33122,-1.08679 -1.57309,-1.08679 l -1.5731,0 0,8.38983 0,8.38984 1.83528,0 1.83527,0 0,-5.43512 z m 27.68774,5.09742 c 0.8574,-0.22965 1.16136,-0.64551 1.04873,-1.43484 -0.14495,-1.01575 -0.43299,-1.09649 -3.3447,-0.93751 -2.82363,0.15417 -3.37543,0.0146 -4.85037,-1.22643 -0.92331,-0.77691 -1.66454,-1.90492 -1.66486,-2.5336 -5.3e-4,-1.10081 0.15684,-1.1281 5.50582,-0.95439 l 5.50642,0.17882 -0.003,-1.48973 c -0.01,-4.87772 -2.65774,-8.04558 -6.72296,-8.04232 -4.87447,0.004 -7.63367,3.12307 -7.67215,8.67311 -0.0251,3.62006 0.89906,5.46501 3.54596,7.07893 1.6941,1.03295 6.06518,1.38056 8.65104,0.68796 l 2.2e-4,0 z m 35.23599,-4.66981 c 0,-6.57362 1.00829,-8.62597 4.23781,-8.62597 0.76802,0 1.00584,-0.37193 1.00584,-1.57309 0,-1.40353 -0.17214,-1.5731 -1.59693,-1.5731 -0.99635,0 -2.08098,0.48405 -2.884,1.28708 l -1.28708,1.28708 0,-1.32191 c 0,-1.13273 -0.20637,-1.29816 -1.442,-1.15598 -0.7931,0.0912 -1.38301,0.34289 -1.31091,0.55919 0.0721,0.2163 0.13109,3.93273 0.13109,8.25874 l 0,7.86547 1.57309,0 1.57309,0 0,-5.00751 z m 27.9778,4.51192 c 0.97697,-0.37144 1.23227,-0.7679 1.01919,-1.58271 -0.25492,-0.97482 -0.5478,-1.05217 -2.83524,-0.74873 -3.16288,0.41957 -5.48515,-0.45782 -6.52281,-2.46444 -0.419,-0.81025 -0.76209,-1.66188 -0.76241,-1.89251 -3.2e-4,-0.23062 2.4773,-0.33884 5.50583,-0.24049 l 5.50641,0.17882 0,-2.16202 c 0,-4.74765 -2.45253,-7.372 -6.88934,-7.372 -4.36333,0 -7.26849,3.41614 -7.26849,8.5469 0,3.44661 1.34928,6.10315 3.71502,7.31431 1.95502,1.0009 6.42835,1.22262 8.53184,0.42287 l 0,0 z m 22.38725,-0.30443 c 1.38673,-0.7171 1.54703,-0.7171 1.54703,0 0,0.53356 0.50748,0.80002 1.52364,0.80002 l 1.5237,0 -0.28321,-6.42347 c -0.30853,-6.99854 -0.94831,-9.04178 -3.08557,-9.85436 -2.86308,-1.08855 -8.60602,-0.22791 -8.58473,1.28652 0.0194,1.38359 0.88832,2.00064 1.98828,1.41197 1.97885,-1.05904 4.70612,-0.71603 5.64007,0.70935 1.09534,1.67169 0.60181,2.3827 -1.65395,2.3827 -4.19078,0 -7.03115,2.38687 -7.03115,5.90851 0,3.96035 4.31667,5.89855 8.41589,3.77876 l 0,0 z m 27.8007,-0.005 c 1.39932,-0.7236 1.58767,-0.7236 1.86537,0 0.16984,0.44269 0.87349,0.80489 1.56366,0.80489 l 1.2548,0 0,-12.06038 0,-12.06039 -1.57309,0 -1.5731,0 0,4.48683 0,4.48684 -1.1654,-0.81629 c -0.65351,-0.45774 -2.24805,-0.81627 -3.63033,-0.81627 -4.29066,0 -7.26465,3.55627 -7.26465,8.68701 0,6.2496 5.35649,9.95935 10.52274,7.28776 z M 59.393309,928.63803 c 10.577721,-8.34295 12.473665,-10.04133 11.93453,-10.69095 -2.056348,-2.47775 -25.718077,-22.65047 -26.56802,-22.65047 -1.099403,0 -2.625998,1.26888 -2.726239,2.266 -0.14659,1.45816 0.284268,2.28408 2.445563,4.68796 5.999439,6.67282 7.570307,16.33936 3.917926,24.10947 -0.627844,1.33567 -2.302495,3.7552 -3.721447,5.37671 -3.649263,4.17022 -3.452626,7.3279 0.434352,6.97499 1.307006,-0.11867 4.659389,-2.48303 14.283335,-10.07371 l 0,0 z M 287.49825,924.0796 c 15.29288,-2.14273 24.26213,-9.41269 25.04088,-20.29669 0.62518,-8.73771 -3.39381,-14.70604 -13.27005,-19.70648 -4.68159,-2.37033 -8.47485,-3.33393 -16.05416,-4.07822 -11.6123,-1.14033 -24.08466,0.83199 -31.31012,4.95123 -5.00333,2.85241 -8.16848,5.94615 -9.93129,9.70727 -1.19935,2.55892 -1.40587,3.69441 -1.40587,7.72985 0,4.28793 0.16117,5.05769 1.72345,8.23113 2.02133,4.10589 4.87754,6.82505 9.94374,9.46658 8.11845,4.23298 22.18925,5.82719 35.26342,3.99533 z m -90.19068,-17.50916 0,-18.09057 -23.07203,0 -23.07204,0 0,5.50583 0,5.50583 13.10911,0 13.10912,0 0,6.81673 0,6.81674 -11.41868,0 c -6.28028,0 -13.41819,-0.24841 -15.86203,-0.55203 -4.66051,-0.57901 -9.30311,-2.33544 -11.44153,-4.32864 -3.44701,-3.21294 -5.296,-10.47006 -4.32719,-16.98388 1.34317,-9.03084 5.23466,-13.35796 13.60952,-15.13306 2.68799,-0.56973 8.72465,-0.7405 26.42481,-0.74752 l 22.94094,-0.009 0,-5.50582 0,-5.50583 -23.35488,0 c -12.84519,0 -25.64623,0.24573 -28.44677,0.54606 -15.16842,1.62669 -25.52672,6.84891 -29.88711,15.06783 -3.13196,5.90344 -4.30286,13.11615 -3.29629,20.30507 2.03143,14.50857 13.617,22.47764 34.64607,23.83115 3.3166,0.21346 15.99967,0.42495 28.18459,0.46996 l 22.15439,0.0818 0,-18.09058 z m 33.03496,-12.06038 0,-30.15095 -9.70074,0 -9.70074,0 0,30.15095 0,30.15096 9.70074,0 9.70074,0 0,-30.15096 z m 132.92638,29.62949 c 10.29632,-0.91486 16.03093,-3.06988 21.6142,-8.12246 4.19516,-3.79639 5.98912,-7.36189 6.32318,-12.56732 0.37975,-5.9173 -1.17588,-10.01201 -5.37595,-14.15051 -7.06705,-6.96345 -13.74474,-8.68485 -33.69042,-8.68485 l -10.10777,0 0,-8.12765 0,-8.12765 -9.43856,0 -9.43856,0 0,30.15095 0,30.15096 17.17293,-0.005 c 9.44512,-0.003 19.76854,-0.23512 22.94095,-0.51699 l 0,2.4e-4 z m 105.04191,-15.07837 c -0.1818,-14.40776 -0.27952,-15.78016 -1.27875,-17.95949 -1.90445,-4.15362 -6.31342,-7.39143 -12.54639,-9.21367 -2.71378,-0.79338 -6.3051,-0.94222 -27.37541,-1.13449 l -24.25185,-0.2213 0,4.444 0,4.44401 18.74603,0.25014 c 15.00798,0.20027 19.32111,0.41638 21.63003,1.08372 3.2283,0.93307 5.76801,3.26 5.76801,5.28476 l 0,1.25007 -17.43512,0.24843 c -15.66402,0.22318 -17.85515,0.3618 -21.57004,1.36464 -6.15956,1.66279 -8.85349,3.61359 -10.49702,7.60139 -1.02235,2.48061 -1.08587,7.11042 -0.12883,9.39137 1.07075,2.55197 4.44675,5.51145 7.65754,6.71276 4.44931,1.6647 8.89516,1.90883 36.12622,1.98375 l 25.35244,0.0697 -0.19686,-15.59984 z m 33.12811,-1.50894 0,-17.10877 10.3562,0.26662 c 6.36507,0.16386 11.0347,0.52013 12.11678,0.92443 3.01516,1.12657 3.22088,2.31388 3.22088,18.58963 l 0,14.43687 9.21586,0 9.21591,0 -0.17063,-16.38639 c -0.1604,-15.40799 -0.23696,-16.52728 -1.28223,-18.74603 -1.96332,-4.16741 -4.85986,-6.12254 -11.47309,-7.74419 -2.43353,-0.59674 -8.34262,-0.82723 -26.08713,-1.01755 l -22.94094,-0.24605 0,22.0701 0,22.07011 8.91419,0 8.9142,0 0,-17.10878 0,0 z m 102.25106,12.3895 0,-4.71928 -5.83827,0 c -6.71523,0 -9.2715,-0.60518 -11.24138,-2.66129 -1.88257,-1.965 -2.27197,-4.42274 -2.29897,-14.51165 l -0.0229,-8.52092 9.70074,0 9.70074,0 0,-4.4571 0,-4.45709 -9.70074,0 -9.70074,0 0,-8.12765 0,-8.12765 -8.9142,0 -8.91419,0 0,8.12765 0,8.12765 -6.55456,0 -6.55455,0 0,4.45709 0,4.4571 6.55455,0 6.55456,0 0.0115,12.19147 c 0.0147,15.78004 0.40822,16.7917 7.88943,20.29084 4.24195,1.98404 8.22759,2.49141 20.28362,2.58208 l 9.04529,0.068 0,-4.71928 z M 77.526901,914.02405 c 1.886401,-1.10694 24.870709,-19.41969 24.870709,-19.81573 0,-0.35852 -2.2845,-2.41931 -18.749352,-16.91336 -7.124975,-6.27212 -8.352711,-6.90541 -10.180488,-5.25129 -1.489924,1.34836 -1.145196,2.93237 1.119408,5.1437 1.143088,1.11619 2.971809,3.81867 4.063824,6.00551 1.936436,3.87785 1.98549,4.11859 1.98549,9.74409 0,5.16046 -0.148023,6.08383 -1.405328,8.76636 -0.772929,1.64909 -2.453381,4.12671 -3.734345,5.50583 -2.855448,3.07424 -3.3617,4.48082 -2.232828,6.20369 0.918183,1.40133 2.52406,1.63158 4.26291,0.6112 l 0,0 z M 59.274459,877.70296 c 6.948865,-5.46451 12.592348,-10.1044 12.54107,-10.31086 -0.05128,-0.20646 -5.863584,-5.45665 -12.916235,-11.66711 -13.574356,-11.95336 -14.731271,-12.6682 -16.474505,-10.17938 -1.030021,1.47056 -0.394152,3.11237 2.364514,6.10517 3.931553,4.26523 6.106619,11.06566 5.490234,17.16543 -0.399567,3.95412 -2.646716,8.62828 -5.798619,12.06135 -1.470877,1.60209 -2.38521,3.08907 -2.38521,3.87904 0,1.84451 1.526255,3.32481 3.178058,3.08238 0.777747,-0.11415 6.809291,-4.48078 14.000693,-10.13602 z"
         style="fill:#ffffff;fill-opacity:0;stroke:#ff0000;stroke-width:0.52436441;stroke-opacity:0" /></g></g></svg>